<svg width="50" height="50" viewBox="0 0 50 50" fill="none" xmlns="http://www.w3.org/2000/svg">
  <path d="M30.5606 26.7623C29.4104 26.7623 28.3708 27.244 27.6329 28.0149L21.5173 24.9577C21.552 24.7445 21.571 24.5239 21.571 24.2967C21.571 24.0695 21.552 23.8497 21.5165 23.6357L27.6329 20.5784C28.3708 21.3502 29.4103 21.8319 30.5606 21.8319C32.8 21.8319 34.6154 20.0141 34.6154 17.7765C34.6154 15.5381 32.8 13.7202 30.5606 13.7202C28.3221 13.7202 26.5075 15.538 26.5075 17.7765C26.5075 18.0037 26.5266 18.2169 26.5604 18.4375L20.4449 21.4956C19.7061 20.7238 18.6674 20.2421 17.5163 20.2421C15.277 20.2421 13.4615 22.0599 13.4615 24.2975C13.4615 26.5359 15.277 28.3538 17.5163 28.3538C18.6674 28.3538 19.7062 27.8713 20.4449 27.1003L26.5596 30.1576C26.5257 30.3782 26.5067 30.598 26.5067 30.8186C26.5067 33.0561 28.3213 34.874 30.5598 34.874C32.7991 34.874 34.6145 33.0562 34.6145 30.8186C34.6145 28.5802 32.7999 26.7623 30.5606 26.7623Z" fill="white"/>
</svg>
