<svg width="47" height="70" viewBox="0 0 47 70" xmlns="http://www.w3.org/2000/svg">
  <g fill="none" fill-rule="evenodd">
    <path d="M46.667 27.145C45.454 42.577 22.837 70 22.837 70V47.2c-9.711-.21-18.277-6.482-21.508-15.747C-1.9 22.187.881 11.867 8.313 5.542a23.12 23.12 0 0126.431-2.527c8.472 4.805 13.115 14.416 11.657 24.13h.266z" fill="#15449E"/>
    <path d="M30.528 23.247l-5.445 12.055 4.084 5.358 8.166-17.413-8.166-14.735-4.084 4.019 5.445 10.716zM21 5.833l4.083 6.698s-5.716 4.896-5.716 11.788c.173 4.31 2.264 8.326 5.716 10.983L21 42s-8.167-6.884-8.167-17.681C12.833 13.52 21 5.833 21 5.833z" fill="#FFF"/>
  </g>
</svg>